<?xml version="1.0" standalone="no"?><!DOCTYPE svg PUBLIC "-//W3C//DTD SVG 1.1//EN" "http://www.w3.org/Graphics/SVG/1.1/DTD/svg11.dtd"><svg t="1621737474595" class="icon" viewBox="0 0 1024 1024" version="1.1" xmlns="http://www.w3.org/2000/svg" p-id="1894" width="48" height="48" xmlns:xlink="http://www.w3.org/1999/xlink"><defs><style type="text/css"></style></defs><path d="M938.666667 426.666667H85.333333a42.666667 42.666667 0 0 1-42.666666-42.666667V256a128 128 0 0 1 128-128h682.666666a128 128 0 0 1 128 128v128a42.666667 42.666667 0 0 1-42.666666 42.666667zM128 341.333333h768V256a42.666667 42.666667 0 0 0-42.666667-42.666667H170.666667a42.666667 42.666667 0 0 0-42.666667 42.666667z" p-id="1895" fill="#8a8a8a"></path><path d="M853.333333 981.333333H170.666667a128 128 0 0 1-128-128V384a42.666667 42.666667 0 0 1 42.666666-42.666667h853.333334a42.666667 42.666667 0 0 1 42.666666 42.666667v469.333333a128 128 0 0 1-128 128zM128 426.666667v426.666666a42.666667 42.666667 0 0 0 42.666667 42.666667h682.666666a42.666667 42.666667 0 0 0 42.666667-42.666667V426.666667zM298.666667 298.666667a42.666667 42.666667 0 0 1-42.666667-42.666667V85.333333a42.666667 42.666667 0 0 1 85.333333 0v170.666667a42.666667 42.666667 0 0 1-42.666666 42.666667zM725.333333 298.666667a42.666667 42.666667 0 0 1-42.666666-42.666667V85.333333a42.666667 42.666667 0 0 1 85.333333 0v170.666667a42.666667 42.666667 0 0 1-42.666667 42.666667z" p-id="1896" fill="#8a8a8a"></path><path d="M298.666667 554.666667m-42.666667 0a42.666667 42.666667 0 1 0 85.333333 0 42.666667 42.666667 0 1 0-85.333333 0Z" p-id="1897" fill="#8a8a8a"></path><path d="M512 554.666667m-42.666667 0a42.666667 42.666667 0 1 0 85.333334 0 42.666667 42.666667 0 1 0-85.333334 0Z" p-id="1898" fill="#8a8a8a"></path><path d="M725.333333 554.666667m-42.666666 0a42.666667 42.666667 0 1 0 85.333333 0 42.666667 42.666667 0 1 0-85.333333 0Z" p-id="1899" fill="#8a8a8a"></path><path d="M298.666667 768m-42.666667 0a42.666667 42.666667 0 1 0 85.333333 0 42.666667 42.666667 0 1 0-85.333333 0Z" p-id="1900" fill="#8a8a8a"></path><path d="M512 768m-42.666667 0a42.666667 42.666667 0 1 0 85.333334 0 42.666667 42.666667 0 1 0-85.333334 0Z" p-id="1901" fill="#8a8a8a"></path><path d="M725.333333 768m-42.666666 0a42.666667 42.666667 0 1 0 85.333333 0 42.666667 42.666667 0 1 0-85.333333 0Z" p-id="1902" fill="#8a8a8a"></path></svg>