<?xml version="1.0" standalone="no"?><!DOCTYPE svg PUBLIC "-//W3C//DTD SVG 1.1//EN" "http://www.w3.org/Graphics/SVG/1.1/DTD/svg11.dtd"><svg t="1621737620438" class="icon" viewBox="0 0 1024 1024" version="1.1" xmlns="http://www.w3.org/2000/svg" p-id="4687" xmlns:xlink="http://www.w3.org/1999/xlink" width="48" height="48"><defs><style type="text/css"></style></defs><path d="M326.528 901.376C311.168 923.861333 285.312 938.666667 256 938.666667H170.666667a85.333333 85.333333 0 0 1-85.333334-85.333334v-384a85.333333 85.333333 0 0 1 85.333334-85.333333h85.333333a85.333333 85.333333 0 0 1 24.32 3.541333c45.824-66.773333 199.893333-235.050667 241.066667-286.293333l12.8-15.957333H554.666667c26.24 0 48.725333 1.962667 74.581333 9.514666C686.592 111.445333 725.333333 150.485333 725.333333 213.290667c0 22.186667-3.925333 45.866667-11.178666 72.106666-4.778667 17.365333-10.666667 34.944-18.773334 56.704l-14.634666 38.613334-1.194667 3.242666H810.666667c79.786667 0 128 56.234667 128 128 0 253.610667-53.12 426.666667-170.666667 426.666667h-297.216a287.616 287.616 0 0 1-101.12-16.298667 208.426667 208.426667 0 0 1-43.093333-20.949333zM341.333333 767.957333c0 38.485333 19.285333 60.544 57.045334 74.026667a205.226667 205.226667 0 0 0 69.376 11.349333H768c43.306667 0 85.333333-136.96 85.333333-341.333333 0-27.349333-13.184-42.666667-42.666666-42.666667h-170.666667c-50.986667 0-61.610667-39.466667-50.986667-82.133333 2.474667-10.026667 6.144-21.077333 11.690667-36.053333 2.432-6.570667 12.373333-32.64 14.677333-38.826667 7.296-19.626667 12.501333-35.029333 16.512-49.578667 5.376-19.498667 8.106667-35.925333 8.106667-49.450666 0-19.2-10.154667-29.44-34.56-36.565334a149.376 149.376 0 0 0-31.146667-5.461333c-65.962667 78.848-215.594667 242.645333-226.901333 269.013333-4.181333 9.685333-6.058667 18.773333-6.058667 29.013334v298.666666zM170.666667 469.333333v384h85.333333v-384H170.666667z" p-id="4688" fill="#8a8a8a"></path></svg>